# xmcd CD database file
# Copyright (C) 1993-1998 Ti Kan
# 
# Track frame offsets:
#     183
#     20985
#     38070
#     63100
#     82040
#     96038
#     109718
#     125835
#     142110
#     158345
#     167418
#     188885
#     205798
#     223578
#     245915
# 
# Disc length: 3538 seconds
# 
# Revision: 1
# Processed by: cddbd v1.4b41PL1 Copyright (c) Steve Scherf et al.
# Submitted via: DiscPlay 4.0.4
# 
DISCID=d30dd00f
DTITLE=Various Artist - Terres Portugaises
DYEAR=1900
DGENRE=
TTITLE0=C. Do Carmo - Rosa Da Noite
TTITLE1=Lucilia Do Carmo - La Vai A Rosa Maria
TTITLE2=A De Melo - Martinho D'Assuncao
TTITLE3=Alexandra - Adeus
TTITLE4=Traditionnel - Tia Anica De Loule
TTITLE5=Traditionnel - Bandeira Portuguesa
TTITLE6=Traditionnel - Brigada Victor Jara - Ao Romper De Bela Aurora
TTITLE7=Traditionnel - Belaurora - Sapateia
TTITLE8=Nazare Pereira - La Vou Eu
TTITLE9=Nazare Pereira - Clarao De Lua
TTITLE10=Ile Axe - Goree
TTITLE11=Bonga - Dois Poemas Irmaos
TTITLE12=Bonga - Pio-Pio
TTITLE13=Jovino Dos Santos - Chiquinha
TTITLE14=Carlos Do Carmo - Balada Para Uma Velhinha
EXTD=
EXTT0=
EXTT1=
EXTT2=
EXTT3=
EXTT4=
EXTT5=
EXTT6=
EXTT7=
EXTT8=
EXTT9=
EXTT10=
EXTT11=
EXTT12=
EXTT13=
EXTT14=
PLAYORDER=
